<svg fill="none" height="21" viewBox="0 0 22 21" width="22" xmlns="http://www.w3.org/2000/svg"><path clip-rule="evenodd" d="m10.7649 0c-5.94421 0-10.7649 4.81994-10.7649 10.7661 0 4.7565 3.08448 8.7912 7.36257 10.2148.53865.0992.73493-.2333.73493-.5188 0-.2551-.00924-.9325-.01453-1.8307-2.9946.6503-3.62643-1.4434-3.62643-1.4434-.48974-1.2438-1.19559-1.5749-1.19559-1.5749-.97749-.6675.07402-.6543.07402-.6543 1.08059.076 1.64897 1.1097 1.64897 1.1097.9603 1.6449 2.52008 1.1697 3.13341.8942.09781-.6953.37604-1.1698.68336-1.4388-2.39052-.2717-4.90396-1.1956-4.90396-5.3209 0-1.17511.41969-2.13672 1.10836-2.88882-.11104-.27229-.48049-1.36741.10574-2.84914 0 0 .90345-.28948 2.96022 1.1037.85852-.23925 1.77984-.35821 2.69523-.36283.9147.00462 1.8353.12358 2.6952.36283 2.0554-1.39318 2.9576-1.1037 2.9576-1.1037.5875 1.48173.2181 2.57685.1077 2.84914.69.7521 1.1064 1.71371 1.1064 2.88882 0 4.1359-2.5175 5.0459-4.9153 5.3123.386.3324.7304.9893.7304 1.9939 0 1.4388-.0133 2.6-.0133 2.9529 0 .2882.1944.6232.7403.5182 4.2748-1.4269 7.3566-5.4591 7.3566-10.2142 0-5.94616-4.8207-10.7661-10.767-10.7661z" fill="#000" fill-rule="evenodd"/></svg>
